<svg xmlns="http://www.w3.org/2000/svg" viewBox="0 0 640 360" role="img" aria-labelledby="be6title">
  <title id="be6title">Mahindra BE 6 — abstract illustration</title>
  <defs>
    <linearGradient id="be6-bg" x1="0" y1="0" x2="1" y2="1">
      <stop offset="0" stop-color="#12161b"/>
      <stop offset="1" stop-color="#184f95"/>
    </linearGradient>
    <linearGradient id="be6-body" x1="0" y1="0" x2="1" y2="0">
      <stop offset="0" stop-color="#3987e5"/>
      <stop offset="1" stop-color="#2a78d6"/>
    </linearGradient>
  </defs>
  <rect width="640" height="360" fill="url(#be6-bg)"/>
  <line x1="0" y1="290" x2="640" y2="290" stroke="#ffffff" stroke-opacity="0.08" stroke-width="2"/>
  <!-- coupe-profile silhouette: low, sloped roofline -->
  <path d="M70 268
           C70 230 110 210 150 206
           L214 158 C238 140 268 130 300 130
           L392 130 C426 130 456 142 480 164
           L512 200
           C548 204 578 220 588 246
           L588 268 Z"
        fill="url(#be6-body)"/>
  <path d="M226 162 L262 160 C280 146 302 138 326 138 L388 138 C414 138 438 148 456 166 L468 190 L232 190 Z"
        fill="#0b0e11" opacity="0.55"/>
  <circle cx="182" cy="270" r="40" fill="#0b0e11"/>
  <circle cx="182" cy="270" r="20" fill="#cde2fb"/>
  <circle cx="486" cy="270" r="40" fill="#0b0e11"/>
  <circle cx="486" cy="270" r="20" fill="#cde2fb"/>
  <rect x="70" y="262" width="518" height="8" fill="#0b0e11" opacity="0.35"/>
  <text x="70" y="60" font-family="system-ui, sans-serif" font-size="34" font-weight="700" fill="#ffffff">BE 6</text>
  <text x="70" y="90" font-family="system-ui, sans-serif" font-size="16" fill="#dde1e6">Coupe SUV · born electric origin</text>
</svg>
