<svg xmlns="http://www.w3.org/2000/svg" viewBox="0 0 640 360" role="img" aria-labelledby="xev9stitle">
  <title id="xev9stitle">Mahindra XEV 9S — abstract illustration</title>
  <defs>
    <linearGradient id="s9-bg" x1="0" y1="0" x2="1" y2="1">
      <stop offset="0" stop-color="#12161b"/>
      <stop offset="1" stop-color="#8a6a12"/>
    </linearGradient>
    <linearGradient id="s9-body" x1="0" y1="0" x2="1" y2="0">
      <stop offset="0" stop-color="#f2c25a"/>
      <stop offset="1" stop-color="#eda100"/>
    </linearGradient>
  </defs>
  <rect width="640" height="360" fill="url(#s9-bg)"/>
  <line x1="0" y1="290" x2="640" y2="290" stroke="#ffffff" stroke-opacity="0.08" stroke-width="2"/>
  <!-- practical SUV: taller, more upright roofline, boxier proportions -->
  <path d="M60 268
           C60 218 96 196 136 194
           L176 150 C192 136 214 128 238 128
           L444 128 C470 128 494 138 512 158
           L546 194
           C580 198 602 216 610 244
           L610 268 Z"
        fill="url(#s9-body)"/>
  <path d="M190 158 L214 156 C226 144 244 138 262 138 L426 138 C446 138 464 146 478 160 L494 186 L200 186 Z"
        fill="#0b0e11" opacity="0.55"/>
  <line x1="352" y1="138" x2="352" y2="186" stroke="#0b0e11" stroke-opacity="0.55" stroke-width="6"/>
  <circle cx="192" cy="270" r="42" fill="#0b0e11"/>
  <circle cx="192" cy="270" r="21" fill="#fde9c2"/>
  <circle cx="500" cy="270" r="42" fill="#0b0e11"/>
  <circle cx="500" cy="270" r="21" fill="#fde9c2"/>
  <rect x="60" y="262" width="550" height="8" fill="#0b0e11" opacity="0.35"/>
  <text x="70" y="60" font-family="system-ui, sans-serif" font-size="34" font-weight="700" fill="#ffffff">XEV 9S</text>
  <text x="70" y="90" font-family="system-ui, sans-serif" font-size="16" fill="#dde1e6">SUV · practical electric</text>
</svg>
