<svg xmlns="http://www.w3.org/2000/svg" viewBox="0 0 640 360" role="img" aria-labelledby="xev9etitle">
  <title id="xev9etitle">Mahindra XEV 9e — abstract illustration</title>
  <defs>
    <linearGradient id="e9-bg" x1="0" y1="0" x2="1" y2="1">
      <stop offset="0" stop-color="#12161b"/>
      <stop offset="1" stop-color="#0f6e5c"/>
    </linearGradient>
    <linearGradient id="e9-body" x1="0" y1="0" x2="1" y2="0">
      <stop offset="0" stop-color="#3ec9a7"/>
      <stop offset="1" stop-color="#1baf7a"/>
    </linearGradient>
  </defs>
  <rect width="640" height="360" fill="url(#e9-bg)"/>
  <line x1="0" y1="290" x2="640" y2="290" stroke="#ffffff" stroke-opacity="0.08" stroke-width="2"/>
  <!-- flagship coupe: longer wheelbase, sharper rear kick -->
  <path d="M52 268
           C52 226 96 204 140 200
           L216 150 C244 132 278 122 314 122
           L404 122 C440 122 472 136 496 160
           L520 196
           C558 200 592 218 602 246
           L602 268 Z"
        fill="url(#e9-body)"/>
  <path d="M228 154 L266 152 C286 138 310 130 336 130 L398 130 C426 130 452 140 472 160 L486 186 L234 186 Z"
        fill="#0b0e11" opacity="0.55"/>
  <path d="M540 196 L578 208 L540 216 Z" fill="#0b0e11" opacity="0.5"/>
  <circle cx="192" cy="270" r="40" fill="#0b0e11"/>
  <circle cx="192" cy="270" r="20" fill="#c9f4e6"/>
  <circle cx="504" cy="270" r="40" fill="#0b0e11"/>
  <circle cx="504" cy="270" r="20" fill="#c9f4e6"/>
  <rect x="52" y="262" width="550" height="8" fill="#0b0e11" opacity="0.35"/>
  <text x="70" y="60" font-family="system-ui, sans-serif" font-size="34" font-weight="700" fill="#ffffff">XEV 9e</text>
  <text x="70" y="90" font-family="system-ui, sans-serif" font-size="16" fill="#dde1e6">Coupe SUV · flagship electric</text>
</svg>
